<svg width="60" height="65" viewBox="0 0 60 65" fill="none" xmlns="http://www.w3.org/2000/svg">
<g clip-path="url(#clip0_206_1349)">
<rect width="60" height="65" fill="#FDFDFD"/>
<path d="M0.0754917 59.5807C0.145024 59.4613 0.11706 59.3304 0.116304 59.2041C0.0732244 39.9976 0.0845611 20.7912 0.112525 1.58554C0.113281 1.22667 0.114037 0.867029 0.110258 0.508159C0.108746 0.270967 0.201707 0.157761 0.450359 0.161612C4.80593 0.230151 9.16226 0.14775 13.5186 0.158531C17.6724 0.168543 21.8269 0.178554 25.9807 0.181634C30.702 0.185485 35.4234 0.182405 40.1448 0.178554C40.2876 0.178554 40.4471 0.242473 40.5748 0.113865C41.518 0.0661186 42.4635 0.133888 43.406 0.0892218C45.7716 -0.0232136 48.1394 -0.0139724 50.5043 0.0330041C52.1655 0.0661186 53.8274 0.125417 55.4871 0.0776702C56.3283 0.053797 57.1672 0.113095 58.0092 0.0591877C58.5193 0.0268432 59.0386 0.0946126 59.554 0.103854C59.8246 0.108474 59.9606 0.262496 59.9886 0.536653C60.0196 0.846236 59.9531 1.14966 59.9584 1.45847C59.9901 3.50926 60.0045 5.56005 59.9946 7.61007C59.9886 8.87767 59.9591 10.146 59.9606 11.4136C59.9644 14.2607 59.941 17.1078 59.9682 19.9549C59.9825 21.4412 59.9659 22.9275 59.9908 24.413C60.0105 25.5905 59.9364 26.7711 59.9742 27.947C60.0075 28.9851 59.9772 30.0225 59.9757 31.0583C59.9735 32.6739 59.9856 34.2904 59.9584 35.9068C59.95 36.382 60.015 36.8541 59.9969 37.3285C59.9924 37.444 59.9984 37.5603 59.9712 37.6735C59.9531 37.7489 59.9326 37.839 59.8503 37.8514C59.7724 37.8629 59.7165 37.7928 59.6681 37.7312C59.588 37.6296 59.5351 37.5117 59.4943 37.3908C59.2086 36.5414 58.9403 35.6866 58.6403 34.8418C58.242 33.7213 57.8905 32.5831 57.5141 31.4541C57.1219 30.2766 56.7251 29.1006 56.3253 27.9255C55.8922 26.654 55.4607 25.3818 55.0412 24.1065C54.7812 23.3156 54.491 22.5363 54.2424 21.7415C53.7602 20.2044 52.2645 19.1678 50.6055 19.5744C49.0509 19.9556 47.5023 20.3576 45.9492 20.7458C45.179 20.9383 44.4165 21.1609 43.6433 21.3411C43.4831 21.378 43.3236 21.4073 43.1581 21.4104C42.8482 21.4165 42.6872 21.2841 42.6132 20.9568C42.3267 19.6946 42.0297 18.4324 41.6201 17.2056C40.8144 14.7936 39.3716 12.8699 37.2811 11.4583C35.7771 10.4433 34.1552 9.73942 32.3428 9.58771C30.3582 9.42136 28.4339 9.63776 26.5898 10.5003C25.3005 11.1033 24.1426 11.8795 23.1533 12.9007C21.8874 14.2076 20.9691 15.7432 20.4136 17.4967C20.047 18.6542 19.8513 19.8409 19.877 21.0553C19.8966 21.9926 20.047 22.9167 20.2654 23.83C20.6131 25.2879 20.9812 26.7403 21.3258 28.1989C21.6251 29.4672 21.9002 30.7433 22.2947 31.987C22.4723 32.5469 22.8434 32.8072 23.2931 32.7163C23.7247 32.6293 24.0459 32.1595 24.0262 31.6389C24.0141 31.3139 23.8932 31.0136 23.8123 30.704C23.7829 30.5923 23.742 30.4845 23.7186 30.3713C23.6838 30.2019 23.6581 30.0302 23.8252 29.92C24.0081 29.7991 24.1872 29.89 24.3028 30.0209C24.7631 30.5423 25.1947 31.1122 25.1418 31.8515C25.0435 33.2184 24.2854 34.3435 22.6726 34.4683C21.9282 34.526 20.8323 33.8437 20.4876 33.1037C20.1536 32.3875 20.0304 31.6666 20.434 30.9281C20.5625 30.694 20.5534 30.4437 20.4861 30.1819C20.2949 29.4372 20.0757 28.7002 19.9382 27.9416C19.8498 27.4549 19.7001 27.3494 19.2308 27.4757C18.2203 27.7483 17.2038 27.994 16.188 28.2412C15.306 28.4561 14.4353 28.7125 13.5556 28.9335C11.9027 29.3486 10.9459 30.9759 11.3344 32.6624C11.4576 33.1984 11.5203 33.7467 11.574 34.2965C11.6352 34.918 11.7765 35.5303 11.8664 36.1487C12.1438 38.05 12.49 39.9399 12.7439 41.8451C12.9389 43.3052 13.1936 44.7561 13.4166 46.2124C13.7385 48.3132 14.068 50.4141 14.3824 52.5157C14.7082 54.6943 15.049 56.8714 15.3823 59.0493C15.6401 60.732 15.829 62.4277 16.1804 64.0958C16.2039 64.2082 16.2243 64.323 16.2296 64.4385C16.2462 64.8128 16.1238 64.9575 15.7625 64.9899C15.6499 64.9999 15.5358 64.996 15.4224 64.996C10.5612 64.996 5.70002 64.996 0.838831 64.996C0.776101 64.996 0.712616 64.9968 0.649886 64.9953C0.108746 64.9837 0.0067156 64.8875 0.00520404 64.3391C-8.64358e-05 62.9145 0.00444825 61.4905 0.00218091 60.0658C-0.000842217 59.901 0.0263659 59.7393 0.0754917 59.5807Z" fill="#FD0707"/>
<path d="M43.2995 49.8545C43.3743 49.8938 43.4575 49.9269 43.5285 49.9777C44.9864 51.0289 46.5645 51.886 48.0481 52.8956C48.466 53.1798 48.8938 53.4509 49.2929 53.7597C49.6005 53.9969 49.5733 54.1378 49.2067 54.2225C48.717 54.335 48.2491 54.5375 47.742 54.5768C47.445 54.5999 47.3543 54.7516 47.5364 55.0104C47.9015 55.5302 48.2643 56.0523 48.6497 56.5567C48.9377 56.9333 48.9467 57.0288 48.6036 57.3461C48.5477 57.3977 48.4963 57.4547 48.4366 57.5024C47.9128 57.9229 47.872 57.8959 47.5092 57.3214C47.1842 56.8062 46.7837 56.3434 46.4594 55.8236C46.2871 55.5471 46.0339 55.5818 45.9259 55.8921C45.7452 56.4104 45.2298 56.7069 45.0953 57.2521C45.0733 57.3422 44.9675 57.4162 44.8511 57.3954C44.7098 57.37 44.6924 57.2475 44.6735 57.1328C44.4959 56.0585 44.1981 55.0111 43.9699 53.9476C43.7016 52.6962 43.4242 51.4471 43.1506 50.1972C43.1189 50.0501 43.0433 49.8845 43.2995 49.8545Z" fill="#E13637"/>
<path d="M42.1002 47.954C42.1131 48.1149 42.0723 48.1758 41.9906 48.1981C41.8176 48.2459 41.6619 48.2073 41.5546 48.0587C41.3611 47.7923 41.1767 47.5181 40.9907 47.2463C40.5615 46.6194 40.1352 45.9894 39.7036 45.3641C39.5827 45.1885 39.452 44.9999 39.6613 44.8281C39.8767 44.6518 40.0468 44.8335 40.1647 44.9968C40.5342 45.5097 40.888 46.0349 41.2454 46.5562C41.4601 46.8697 41.6785 47.1823 41.881 47.5042C41.9793 47.6644 42.0473 47.8446 42.1002 47.954Z" fill="#EB3A30"/>
<path d="M44.4693 47.1321C44.6311 46.1841 44.7958 45.2122 44.9636 44.2411C44.9961 44.054 44.9802 43.8546 45.0876 43.6836C45.1669 43.5581 45.2599 43.4572 45.4246 43.4988C45.5985 43.5427 45.6287 43.6851 45.606 43.8307C45.5274 44.3359 45.4526 44.8426 45.346 45.3416C45.2145 45.9554 45.0936 46.5707 45.0188 47.1945C44.9923 47.4148 44.9107 47.5742 44.6673 47.5457C44.4323 47.5179 44.4731 47.3193 44.4693 47.1321Z" fill="#EB432F"/>
<path d="M40.0104 50.7896C39.0158 50.6087 37.9667 50.4215 36.9185 50.2252C36.7197 50.1882 36.5338 50.0704 36.5738 49.8432C36.6207 49.5821 36.8489 49.636 37.0364 49.6684C38.0393 49.8401 39.0422 50.0134 40.0451 50.1859C40.0822 50.192 40.1192 50.2013 40.1563 50.2098C40.3437 50.2506 40.4994 50.3276 40.4707 50.5617C40.4389 50.8197 40.2417 50.7889 40.0104 50.7896Z" fill="#EA3E2C"/>
<path d="M48.3277 48.4877C48.0511 48.6848 47.7737 48.8812 47.4986 49.0799C47.3535 49.1846 47.1797 49.2455 47.0527 49.1107C46.894 48.9421 47.0285 48.7803 47.1532 48.6479C47.5296 48.2466 48.0261 48.0102 48.4486 47.6706C48.7426 47.435 49.0616 47.2316 49.3699 47.0137C49.5483 46.9198 49.6942 46.7757 49.8718 46.6764C50.0214 46.5932 50.1476 46.554 50.2685 46.7103C50.4031 46.8836 50.2837 46.9937 50.1711 47.1C49.8574 47.3964 49.506 47.6467 49.1553 47.8909C48.8764 48.0849 48.6028 48.2867 48.3277 48.4877Z" fill="#EE3B27"/>
<path d="M38.1934 55.0285C38.9643 54.4463 39.7284 53.8549 40.5098 53.2888C40.6995 53.1518 40.9739 52.9631 41.1643 53.2742C41.3344 53.553 41.1409 53.7848 40.9074 53.8972C40.4622 54.1121 40.1637 54.5333 39.711 54.7274C39.6868 54.6989 39.6739 54.6658 39.6739 54.628C39.9022 54.3192 40.2264 54.1236 40.5144 53.8857C40.5726 53.8379 40.6444 53.8087 40.7048 53.7632C40.8091 53.6854 41.0056 53.6207 40.9006 53.459C40.8121 53.3227 40.6753 53.4667 40.5779 53.5299C39.9566 53.9357 39.3626 54.3808 38.7761 54.8383C38.6302 54.9523 38.4926 55.0963 38.2833 55.0855C38.2478 55.0762 38.2175 55.057 38.1934 55.0285Z" fill="#F4A6A1"/>
<path d="M48.3281 48.4873C48.7128 48.0098 49.2774 47.768 49.7309 47.3799C49.8548 47.2736 49.9939 47.1858 50.1133 47.0749C50.1979 46.9964 50.3325 46.9209 50.2161 46.7622C50.0959 46.599 49.9757 46.6914 49.8548 46.7522C49.6908 46.8346 49.5797 47.0179 49.3703 47.0125C49.5003 46.7907 49.7392 46.716 49.9289 46.5743C50.108 46.4403 50.2244 46.5043 50.3453 46.6506C50.47 46.8007 50.4383 46.927 50.3113 47.0533C49.9599 47.4045 49.5631 47.7025 49.155 47.9736C48.8874 48.1531 48.6456 48.3872 48.3281 48.4873Z" fill="#E5817D"/>
<path d="M38.1926 55.0283C38.2274 55.0337 38.2614 55.0399 38.2961 55.0453C38.2984 55.113 38.2621 55.1608 38.2236 55.2108C38.1556 55.2994 37.9666 55.3618 38.0777 55.4981C38.1533 55.5905 38.2772 55.4688 38.3717 55.4165C38.4677 55.3633 38.5531 55.2832 38.674 55.2955C38.7103 55.3056 38.7345 55.3287 38.7466 55.3641C38.5531 55.5882 38.3249 55.7576 38.0286 55.7992C37.9069 55.8161 37.7686 55.8231 37.7036 55.6806C37.6446 55.5512 37.6824 55.4311 37.7845 55.3379C37.9107 55.2224 37.9999 55.0537 38.1926 55.0283Z" fill="#EF9C92"/>
<path d="M39.7033 54.6318C39.7055 54.6634 39.7078 54.695 39.7108 54.7266C39.4138 54.9768 39.1123 55.2202 38.7472 55.3634C38.7351 55.348 38.723 55.3326 38.7109 55.3172C38.9422 54.9399 39.2868 54.7312 39.7033 54.6318Z" fill="#EF9C92"/>
<path d="M21.8477 20.8962C21.9618 17.4916 23.3229 14.7408 26.1768 12.921C28.7328 11.2907 31.5118 11.0343 34.3551 12.1132C37.2271 13.2021 39.0477 15.313 39.9441 18.2779C40.4747 20.0314 40.817 21.8327 41.2584 23.6086C41.5418 24.7514 41.8351 25.8919 42.1245 27.0332C42.2553 27.5484 42.7087 27.9081 43.1599 27.8557C43.6255 27.8018 44.0684 27.2935 44.1009 26.7999C44.1311 26.3363 43.952 25.9227 43.8379 25.4922C43.7872 25.302 43.6429 25.0248 43.8099 24.9239C44.0329 24.7884 44.2158 25.0448 44.3556 25.2173C44.9587 25.9628 45.1892 26.7922 44.8151 27.7194C44.4176 28.7067 43.7192 29.3035 42.6377 29.3281C41.309 29.3589 40.0884 27.9566 40.2593 26.6112C40.2804 26.4479 40.3175 26.2878 40.4195 26.1453C40.6523 25.8195 40.65 25.4668 40.551 25.0841C40.3469 24.2924 40.0816 23.5169 39.9668 22.7021C39.9116 22.3086 39.7642 22.2293 39.3017 22.3417C38.1642 22.6182 37.0313 22.9132 35.8954 23.195C34.052 23.6517 32.2056 24.096 30.3638 24.5581C28.9482 24.9131 27.5379 25.2882 26.1246 25.6509C25.198 25.8881 24.2707 26.1222 23.3418 26.3494C23.1196 26.404 22.8891 26.4579 22.8287 26.1037C22.6186 24.8661 22.19 23.6794 21.995 22.4372C21.9127 21.9266 21.865 21.4184 21.8477 20.8962Z" fill="#FD0908"/>
<path d="M44.9969 57.0081C44.8533 56.8972 44.783 56.7525 44.7445 56.5884C44.5291 55.6597 44.3039 54.7325 44.0998 53.8006C43.8632 52.7187 43.6456 51.6328 43.4196 50.5485C43.3992 50.4522 43.3372 50.3544 43.4423 50.2666C43.5662 50.1627 43.6123 50.2998 43.6917 50.3421C44.4142 50.7248 45.1178 51.1553 45.7791 51.6228C46.6521 52.2396 47.6452 52.6686 48.435 53.4087C48.5453 53.5119 48.7161 53.5126 48.8166 53.6443C48.9005 53.7537 49.0396 53.8345 48.9897 54.0009C48.9459 54.1464 48.8091 54.158 48.6859 54.1857C48.3435 54.2627 48.0027 54.3467 47.6603 54.4237C47.2189 54.5222 47.172 54.6917 47.4154 55.0867C47.7608 55.6474 48.215 56.1287 48.5196 56.7217C48.6428 56.9612 48.6647 57.1029 48.4478 57.2569C48.3964 57.2931 48.3571 57.3454 48.3065 57.384C47.921 57.6766 47.8938 57.6581 47.6225 57.2292C47.2975 56.7163 46.9582 56.2111 46.6037 55.719C46.3475 55.3632 45.9303 55.421 45.7799 55.8337C45.625 56.2604 45.1881 56.4983 45.0876 56.9558C45.0823 56.9781 45.0287 56.9904 44.9969 57.0081Z" fill="#FD0C07"/>
<path d="M39.7029 54.6322C39.3718 54.861 39.0408 55.0897 38.7098 55.3176C38.5624 55.4108 38.4196 55.5132 38.2654 55.5949C38.1543 55.6542 38.0054 55.6996 37.9215 55.5825C37.8323 55.4586 37.9313 55.3423 38.0311 55.256C38.1165 55.1821 38.2072 55.1151 38.2956 55.0442C39.0076 54.5321 39.7187 54.0192 40.4307 53.5071C40.5017 53.4555 40.5705 53.3985 40.6468 53.3562C40.7663 53.2892 40.9099 53.1906 41.0126 53.3485C41.123 53.5171 41.0406 53.6835 40.8826 53.7674C40.4481 53.9992 40.1042 54.3558 39.7029 54.6322Z" fill="#EA332A"/>
</g>
<defs>
<clipPath id="clip0_206_1349">
<rect width="60" height="65" fill="white"/>
</clipPath>
</defs>
</svg>
